<svg width="54" height="43" viewBox="0 0 54 43" fill="none" xmlns="http://www.w3.org/2000/svg">
<path opacity="0.5" d="M53.6995 42.4668C53.6995 36.9513 52.6131 31.4898 50.5024 26.3941C48.3917 21.2984 45.298 16.6684 41.3979 12.7683C37.4979 8.86825 32.8678 5.77455 27.7722 3.66386C22.6765 1.55316 17.215 0.466797 11.6995 0.466797V42.4668H53.6995Z" fill="#F3B01A"/>
<path d="M17.4303 42.4668H10.1919V17.7951L4.53372 23.5553L0.404785 19.2224L11.1094 8.4668H17.4303V42.4668Z" fill="#2B2B6B"/>
<path d="M35.0393 42.3532C43.0256 42.3532 48.2837 37.9384 48.2837 30.8946C48.2837 24.198 43.2736 20.1801 37.6683 20.1801C34.6425 20.1801 31.9638 21.3706 30.3765 22.9579V14.8724H46.0515V8.67188H23.3327V27.6703L28.2435 28.96C30.2277 27.0751 32.4599 26.2814 35.1881 26.2814C38.9581 26.2814 41.1406 28.2656 41.1406 31.1922C41.1406 33.8708 38.9084 36.103 34.9897 36.103C31.5174 36.103 28.4419 34.8133 26.2098 32.4819L22.291 37.3927C25.1185 40.4682 29.2852 42.3532 35.0393 42.3532Z" fill="#2B2B6B"/>
</svg>
