<svg width="41" height="29" viewBox="0 0 41 29" fill="none" xmlns="http://www.w3.org/2000/svg">
<path opacity="0.8" d="M40.8267 28.6094C40.8267 24.9324 40.1024 21.2914 38.6953 17.8942C37.2882 14.4971 35.2257 11.4104 32.6256 8.81038C30.0256 6.21034 26.9389 4.14788 23.5418 2.74075C20.1447 1.33362 16.5037 0.609375 12.8267 0.609375V28.6094H40.8267Z" fill="white"/>
<path d="M26.7047 6.4618C26.6638 6.17616 26.4652 5.9381 26.1915 5.84665C25.9192 5.75443 25.6165 5.82654 25.4119 6.03037L24.3348 7.10823C23.759 7.68398 22.7556 7.68398 22.1798 7.10823C21.5841 6.51248 21.5844 5.54938 22.1798 4.95403L23.2569 3.87694C23.4607 3.6731 23.5321 3.37111 23.4406 3.09736C23.3491 2.8236 23.1111 2.625 22.8255 2.58412C21.404 2.38329 19.9654 2.86082 18.9485 3.87617C17.7986 5.0269 17.3448 6.71844 17.765 8.29166L6.50302 19.5533L6.50226 19.5525C4.93498 19.1367 3.23379 19.5905 2.08753 20.7367C1.07736 21.7469 0.593882 23.1967 0.794718 24.6144C0.835647 24.9 1.03425 25.1381 1.30795 25.2295C1.57947 25.321 1.88294 25.2496 2.08753 25.0458L3.16463 23.968C3.74037 23.3922 4.74384 23.3922 5.31959 23.968C5.91534 24.5636 5.91503 25.5267 5.31959 26.1221L4.24249 27.1992C4.03866 27.4031 3.96726 27.7051 4.05876 27.9788C4.15027 28.2526 4.38828 28.4512 4.67392 28.4921C6.0917 28.6938 7.51832 28.2316 8.55088 27.2C9.70085 26.0493 10.1546 24.3577 9.73436 22.7845L20.9964 11.5229L20.9971 11.5237C22.5726 11.941 24.2656 11.4857 25.4119 10.3395C26.422 9.3293 26.9055 7.87958 26.7047 6.4618Z" fill="#2B2B6B"/>
<path d="M22.1791 19.397C21.8184 19.397 21.4472 19.4513 21.0113 19.5666L18.059 16.6147L14.8267 19.8467L17.7785 22.7987C17.6632 23.2353 17.6089 23.6065 17.6089 23.9673C17.6089 26.4874 19.659 28.5375 22.1791 28.5375C24.6993 28.5375 26.7493 26.4874 26.7493 23.9673C26.7493 21.4471 24.6993 19.397 22.1791 19.397ZM24.6785 23.8148L24.2255 25.5048C24.1548 25.7674 23.9495 25.9727 23.6869 26.0433L21.9969 26.4963C21.7487 26.5648 21.4618 26.4998 21.2613 26.2992L20.0243 25.0622C19.8316 24.8695 19.7565 24.5891 19.8271 24.3265L20.2802 22.6365C20.3508 22.3739 20.5561 22.1686 20.8187 22.098L22.5087 21.645C22.7698 21.5721 23.051 21.6494 23.2443 21.8421L24.4814 23.0791C24.674 23.2718 24.7491 23.5522 24.6785 23.8148Z" fill="#2B2B6B"/>
<path d="M9.73317 8.24786C10.1534 6.67464 9.69965 4.98239 8.54968 3.83237C6.82321 2.10666 3.81134 2.10666 2.08638 3.83237C0.304864 5.61465 0.304864 8.51415 2.08638 10.2957C3.23117 11.4405 4.92642 11.9009 6.50187 11.4792L9.44103 14.4604L12.6728 11.229L9.73317 8.24786ZM7.74111 6.83531L7.2881 8.52532C7.21742 8.78791 7.01211 8.99321 6.74958 9.06385L5.05956 9.51686C4.8113 9.58531 4.52444 9.52031 4.32391 9.31973L3.08691 8.08272C2.89425 7.89006 2.81914 7.60965 2.88978 7.34707L3.34279 5.65705C3.41347 5.39447 3.61878 5.18917 3.88131 5.11853L5.57133 4.66552C5.83391 4.59412 6.11432 4.66999 6.30698 4.86265L7.54398 6.09965C7.73664 6.29231 7.81175 6.57272 7.74111 6.83531Z" fill="#2B2B6B"/>
</svg>
