<svg width="65" height="45" viewBox="0 0 65 45" fill="none" xmlns="http://www.w3.org/2000/svg">
<circle opacity="0.5" cx="42.9495" cy="22.4668" r="22" fill="#BAC927"/>
<path d="M36.3404 38.1438C38.8335 38.1438 40.8546 36.1227 40.8546 33.6296C40.8546 31.1365 38.8335 29.1155 36.3404 29.1155C33.8473 29.1155 31.8262 31.1365 31.8262 33.6296C31.8262 36.1227 33.8473 38.1438 36.3404 38.1438Z" fill="#2B2B6B"/>
<path d="M42.6604 20.087H37.8453C36.0396 11.9615 28.2151 6.54447 20.0896 8.35014C14.0707 9.55391 9.25562 14.0681 8.05184 20.087H5.94523C2.93579 20.087 0.227295 22.7955 0.227295 25.8049V29.7172C0.227295 31.8238 2.03296 33.6294 4.13957 33.6294H5.0424C5.0424 29.7172 8.35279 26.4068 12.2651 26.4068C16.1773 26.4068 19.4877 29.7172 19.4877 33.6294H29.1179C29.1179 29.7172 32.4283 26.4068 36.3406 26.4068C40.2529 26.4068 43.5632 29.7172 43.5632 33.6294H44.4661C46.5727 33.6294 48.3783 31.8238 48.3783 29.7172V26.1058C48.3783 22.7955 45.6699 20.087 42.6604 20.087ZM12.8669 20.087C14.3717 14.369 20.3905 11.3596 25.8075 12.8643C29.1179 13.7671 31.8264 16.4756 33.0302 20.087H12.8669ZM12.2651 29.1153C9.85751 29.1153 7.7509 31.2219 7.7509 33.6294C7.7509 36.037 9.85751 38.1436 12.2651 38.1436C14.6726 38.1436 16.7792 36.037 16.7792 33.6294C16.7792 31.2219 14.6726 29.1153 12.2651 29.1153Z" fill="#2B2B6B"/>
</svg>
