<svg width="64" height="45" viewBox="0 0 64 45" fill="none" xmlns="http://www.w3.org/2000/svg">
<circle opacity="0.5" cx="41.7148" cy="22.0117" r="22" fill="#337AB7"/>
<path d="M40.9625 23.4332C40.6167 21.5219 39.5377 21.5549 37.9613 21.5549C37.7404 21.5549 37.4711 21.5834 37.1706 21.6368L35.1434 15.5548C34.5193 13.6829 32.6052 11.9109 30.693 11.433L30.5296 11.3918C29.2297 11.0668 27.3003 10.8034 25.7551 10.7215V7.29804C25.7551 6.92465 25.4496 6.61914 25.0762 6.61914H15.5716C15.1983 6.61914 14.8927 6.92465 14.8927 7.29804V10.7862C13.549 10.9053 12.0785 11.1279 11.0235 11.3909L10.8623 11.4312C8.9483 11.9091 7.03381 13.6811 6.40967 15.5535L4.38248 21.6359C4.08286 21.5834 3.81492 21.5549 3.5945 21.5549C2.01674 21.5549 0.936383 21.5219 0.590144 23.4332C0.160174 25.8071 0.42766 26.9811 2.14347 26.9811C2.50509 26.9811 2.8536 26.982 3.19576 26.9834C3.15005 27.4718 3.1247 27.9348 3.1247 28.3435V33.7747V36.9429C3.1247 38.4428 4.34038 39.6585 5.8403 39.6585H8.5559C10.0558 39.6585 11.2715 38.4428 11.2715 36.9429V35.5851H30.2807V36.9429C30.2807 38.4428 31.4964 39.6585 32.9963 39.6585H35.7119C37.2118 39.6585 38.4275 38.4428 38.4275 36.9429V35.5851V33.7747V29.7013V28.3435V26.9857H38.3564V26.983C38.699 26.9816 39.0484 26.9807 39.411 26.9807C41.1245 26.9816 41.392 25.8071 40.9625 23.4332ZM9.92094 31.0586C9.50636 31.0577 7.69686 31.0554 7.20534 31.0554C5.70543 31.0554 5.84754 29.8398 5.84754 28.3399C5.84754 26.8399 7.06322 26.9821 8.56314 26.9821C10.0631 26.9821 13.9943 28.1977 13.9943 29.6976C13.9943 31.0165 12.9443 31.0659 9.92094 31.0586ZM7.10713 22.0474L8.98496 16.412C9.31129 15.4335 10.5193 14.3156 11.52 14.0658L11.6811 14.0255C13.0226 13.691 15.3218 13.4081 16.7027 13.4081H24.8495C26.2308 13.4081 28.53 13.691 29.8688 14.0259L30.0322 14.0671C31.0325 14.317 32.2409 15.4358 32.5672 16.4138L34.4432 22.0424C28.4744 24.2705 25.8606 24.2705 20.7761 24.2705C15.6966 24.2705 12.9909 24.2696 7.10713 22.0474ZM34.3541 31.0559C30.2807 31.0559 27.5651 31.1976 27.5651 29.7004C27.5651 28.2032 31.4964 26.9897 32.9963 26.9897C34.4962 26.9897 35.7119 26.8481 35.7119 28.3453C35.7119 29.8425 35.854 31.0559 34.3541 31.0559Z" fill="#2B2B6B"/>
</svg>
