<svg width="55" height="43" viewBox="0 0 55 43" fill="none" xmlns="http://www.w3.org/2000/svg">
<path opacity="0.5" d="M11.3572 21.4865C11.3572 9.67864 20.9294 0.106445 32.7373 0.106445H54.1174V21.4865C54.1174 33.2944 44.5452 42.8666 32.7373 42.8666C20.9294 42.8666 11.3572 33.2944 11.3572 21.4865Z" fill="#F3B01A"/>
<path d="M37.4569 37.1608L30.0937 29.7973L35.3468 26.7631C35.7573 26.526 35.9961 26.0754 35.962 25.6026C35.9278 25.1297 35.6266 24.718 35.1863 24.5425L11.7616 15.1983C11.3024 15.0149 10.7781 15.1229 10.4284 15.4725C10.0787 15.8223 9.97068 16.3465 10.1539 16.8057L19.4966 40.2332C19.6723 40.6734 20.084 40.9748 20.5569 41.0089C21.0298 41.0433 21.4805 40.8044 21.7175 40.3938L24.7515 35.1406L32.1142 42.5041C32.3462 42.7362 32.6611 42.8667 32.9891 42.8667C33.3174 42.8667 33.6321 42.7362 33.8641 42.5041L37.457 38.9107C37.9402 38.4274 37.9402 37.6441 37.4569 37.1608Z" fill="#2B2B6B"/>
<path d="M6.25402 9.54823C5.77078 9.06536 4.98755 9.06524 4.50406 9.54823C4.02094 10.0315 4.02094 10.815 4.50406 11.2982L7.2534 14.0475C7.49495 14.2891 7.81151 14.4099 8.12831 14.4099C8.44487 14.4099 8.76155 14.2891 9.00311 14.0475C9.48635 13.5643 9.48635 12.7809 9.00311 12.2977L6.25402 9.54823Z" fill="#2B2B6B"/>
<path d="M7.18575 18.1021C7.18575 17.4189 6.63175 16.8647 5.94831 16.8647H2.0602C1.37688 16.8647 0.822754 17.4187 0.822754 18.1021C0.822754 18.7854 1.37676 19.3395 2.0602 19.3395H5.94831C6.63175 19.3394 7.18575 18.7854 7.18575 18.1021Z" fill="#2B2B6B"/>
<path d="M6.68401 21.9208L3.9343 24.6704C3.45118 25.1536 3.45118 25.9371 3.9343 26.4202C4.17598 26.6618 4.49266 26.7826 4.80922 26.7826C5.12577 26.7826 5.44258 26.6618 5.68414 26.4202L8.43372 23.6708C8.91696 23.1875 8.91696 22.404 8.43372 21.9208C7.9506 21.4379 7.1675 21.4378 6.68401 21.9208Z" fill="#2B2B6B"/>
<path d="M13.0575 12.2299C13.7408 12.2299 14.295 11.6759 14.295 10.9925V7.10402C14.295 6.4207 13.7409 5.8667 13.0575 5.8667C12.3743 5.8667 11.8202 6.42058 11.8202 7.10402V10.9926C11.8202 11.6759 12.3742 12.2299 13.0575 12.2299Z" fill="#2B2B6B"/>
<path d="M17.7508 13.8404C18.0676 13.8404 18.3841 13.7196 18.6257 13.478L21.3749 10.7287C21.8581 10.2454 21.8581 9.46194 21.3749 8.9787C20.8917 8.49571 20.1082 8.49571 19.6251 8.9787L16.8759 11.7282C16.3926 12.2114 16.3926 12.9949 16.8759 13.478C17.1175 13.7196 17.4341 13.8404 17.7508 13.8404Z" fill="#2B2B6B"/>
</svg>
