<svg width="42" height="30" viewBox="0 0 42 30" fill="none" xmlns="http://www.w3.org/2000/svg">
<path opacity="0.8" d="M12.5508 14.6084C12.5508 6.56954 19.0676 0.0527344 27.1065 0.0527344H41.6622V14.6084C41.6622 22.6473 35.1454 29.1641 27.1065 29.1641C19.0676 29.1641 12.5508 22.6473 12.5508 14.6084Z" fill="white"/>
<path d="M0.935308 25.793H3.65238C4.00001 26.7786 4.64482 27.6321 5.4979 28.2358C6.35099 28.8395 7.37034 29.1637 8.41543 29.1637C9.46052 29.1637 10.4799 28.8395 11.333 28.2358C12.186 27.6321 12.8309 26.7786 13.1785 25.793H22.1715C22.5191 26.7786 23.1639 27.6321 24.017 28.2358C24.8701 28.8395 25.8894 29.1637 26.9345 29.1637C27.9796 29.1637 28.999 28.8395 29.8521 28.2358C30.7051 27.6321 31.3499 26.7786 31.6976 25.793H34.4146C34.6627 25.793 34.9006 25.6945 35.076 25.5191C35.2514 25.3437 35.35 25.1058 35.35 24.8577V14.9435C35.35 14.6954 35.2514 14.4575 35.076 14.2821C34.9006 14.1067 34.6627 14.0081 34.4146 14.0081H32.2821L29.3406 6.65195C29.2155 6.33999 28.9999 6.07262 28.7215 5.88426C28.4431 5.6959 28.1147 5.59517 27.7786 5.59505H26.0951V3.15857C26.0951 2.91052 25.9965 2.67262 25.8211 2.49721C25.6457 2.32181 25.4078 2.22327 25.1598 2.22327H23.6633C23.4152 2.22327 23.1773 2.32181 23.0019 2.49721C22.8265 2.67262 22.728 2.91052 22.728 3.15857V5.59037H17.6773C17.2308 5.59037 16.8026 5.76775 16.4869 6.08348C16.1711 6.3992 15.9938 6.82742 15.9938 7.27393V11.6278L5.39673 1.03543C5.1613 0.801026 4.86178 0.641519 4.53589 0.576988C4.21 0.512457 3.8723 0.545788 3.56532 0.672783C3.25833 0.799778 2.99578 1.01476 2.81071 1.29066C2.62565 1.56656 2.52636 1.89105 2.52533 2.22327V8.95748C2.52533 9.40399 2.7027 9.83221 3.01843 10.1479C3.33416 10.4637 3.76238 10.641 4.20888 10.641C4.65539 10.641 5.08361 10.4637 5.39934 10.1479C5.71506 9.83221 5.89244 9.40399 5.89244 8.95748V6.29186L13.6087 14.0081H0.935308C0.687249 14.0081 0.44935 14.1067 0.273945 14.2821C0.0985412 14.4575 0 14.6954 0 14.9435V24.8577C0 25.1058 0.0985412 25.3437 0.273945 25.5191C0.44935 25.6945 0.687249 25.793 0.935308 25.793ZM8.41777 25.793C8.08479 25.793 7.7593 25.6943 7.48244 25.5093C7.20558 25.3243 6.98979 25.0614 6.86237 24.7537C6.73494 24.4461 6.7016 24.1076 6.76656 23.781C6.83152 23.4544 6.99187 23.1545 7.22732 22.919C7.46277 22.6836 7.76275 22.5232 8.08932 22.4583C8.4159 22.3933 8.75441 22.4266 9.06204 22.5541C9.36967 22.6815 9.6326 22.8973 9.81759 23.1741C10.0026 23.451 10.1013 23.7765 10.1013 24.1095C10.1013 24.3306 10.0578 24.5495 9.97317 24.7537C9.88856 24.958 9.76455 25.1436 9.60822 25.2999C9.45189 25.4563 9.2663 25.5803 9.06204 25.6649C8.85778 25.7495 8.63886 25.793 8.41777 25.793ZM26.9369 25.793C26.6039 25.793 26.2784 25.6943 26.0015 25.5093C25.7247 25.3243 25.5089 25.0614 25.3815 24.7537C25.254 24.4461 25.2207 24.1076 25.2857 23.781C25.3506 23.4544 25.511 23.1545 25.7464 22.919C25.9819 22.6836 26.2818 22.5232 26.6084 22.4583C26.935 22.3933 27.2735 22.4266 27.5811 22.5541C27.8888 22.6815 28.1517 22.8973 28.3367 23.1741C28.5217 23.451 28.6204 23.7765 28.6204 24.1095C28.6204 24.556 28.443 24.9842 28.1273 25.2999C27.8116 25.6156 27.3834 25.793 26.9369 25.793ZM19.3609 8.95748H26.6563L28.6485 14.0081H19.3609V8.95748ZM3.36711 17.3753H31.9875V22.4259H31.7023C31.3546 21.4403 30.7098 20.5869 29.8567 19.9832C29.0036 19.3795 27.9843 19.0553 26.9392 19.0553C25.8941 19.0553 24.8748 19.3795 24.0217 19.9832C23.1686 20.5869 22.5238 21.4403 22.1761 22.4259H13.1785C12.8309 21.4403 12.186 20.5869 11.333 19.9832C10.4799 19.3795 9.46052 19.0553 8.41543 19.0553C7.37034 19.0553 6.35099 19.3795 5.4979 19.9832C4.64482 20.5869 4.00001 21.4403 3.65238 22.4259H3.36711V17.3753Z" fill="#2B2B6B"/>
</svg>
