<svg width="66" height="45" viewBox="0 0 66 45" fill="none" xmlns="http://www.w3.org/2000/svg">
<circle opacity="0.5" cx="43.3082" cy="22.9893" r="22" fill="#BAC927"/>
<path d="M36.6991 38.666C39.1922 38.666 41.2133 36.645 41.2133 34.1519C41.2133 31.6588 39.1922 29.6377 36.6991 29.6377C34.206 29.6377 32.1849 31.6588 32.1849 34.1519C32.1849 36.645 34.206 38.666 36.6991 38.666Z" fill="#2B2B6B"/>
<path d="M43.0192 20.6092H38.2041C36.3984 12.4837 28.5739 7.06669 20.4484 8.87235C14.4295 10.0761 9.61438 14.5903 8.41061 20.6092H6.304C3.29456 20.6092 0.58606 23.3177 0.58606 26.3271V30.2394C0.58606 32.346 2.39172 34.1517 4.49833 34.1517H5.40116C5.40116 30.2394 8.71155 26.929 12.6238 26.929C16.5361 26.929 19.8465 30.2394 19.8465 34.1517H29.4767C29.4767 30.2394 32.7871 26.929 36.6993 26.929C40.6116 26.929 43.922 30.2394 43.922 34.1517H44.8248C46.9314 34.1517 48.7371 32.346 48.7371 30.2394V26.6281C48.7371 23.3177 46.0286 20.6092 43.0192 20.6092ZM13.2257 20.6092C14.7304 14.8912 20.7493 11.8818 26.1663 13.3865C29.4767 14.2893 32.1852 16.9978 33.389 20.6092H13.2257ZM12.6238 29.6375C10.2163 29.6375 8.10966 31.7441 8.10966 34.1517C8.10966 36.5592 10.2163 38.6658 12.6238 38.6658C15.0314 38.6658 17.138 36.5592 17.138 34.1517C17.138 31.7441 15.0314 29.6375 12.6238 29.6375Z" fill="#2B2B6B"/>
</svg>
