<svg width="20" height="20" viewBox="0 0 20 20" fill="none" xmlns="http://www.w3.org/2000/svg">
<path d="M18.2515 0.873047H12.4048C11.936 0.873047 11.5561 1.25298 11.5561 1.72177C11.5561 2.19057 11.936 2.5705 12.4048 2.5705H16.2968L7.96771 10.8996C7.63609 11.231 7.63609 11.7685 7.96771 12.0999C8.13342 12.2656 8.3507 12.3486 8.56777 12.3486C8.78485 12.3486 9.00212 12.2656 9.16783 12.0999L17.4028 3.86479V7.56829C17.4028 8.03709 17.7827 8.41702 18.2515 8.41702C18.7203 8.41702 19.1002 8.03709 19.1002 7.56829V1.72177C19.1002 1.25298 18.7203 0.873047 18.2515 0.873047Z" fill="#9CAA0F"/>
<path d="M15.3158 9.42042C14.847 9.42042 14.4671 9.80035 14.4671 10.2691V16.9652C14.4671 17.272 14.208 17.531 13.9012 17.531H3.08017C2.77341 17.531 2.51435 17.272 2.51435 16.9652V6.14413C2.51435 5.83738 2.77341 5.57831 3.08017 5.57831H9.79987C10.2687 5.57831 10.6486 5.19838 10.6486 4.72959C10.6486 4.26079 10.2687 3.88086 9.79987 3.88086H3.08017C1.83215 3.88086 0.816895 4.89611 0.816895 6.14413V16.9652C0.816895 18.2132 1.83215 19.2285 3.08017 19.2285H13.9012C15.1493 19.2285 16.1645 18.2132 16.1645 16.9652V10.2691C16.1645 9.80055 15.7846 9.42042 15.3158 9.42042Z" fill="#9CAA0F"/>
</svg>
