<svg width="64" height="44" viewBox="0 0 64 44" fill="none" xmlns="http://www.w3.org/2000/svg">
<path opacity="0.5" d="M20.2418 21.9201C20.2418 10.1122 29.814 0.540039 41.6219 0.540039H63.002V21.9201C63.002 33.728 53.4298 43.3002 41.6219 43.3002C29.814 43.3002 20.2418 33.728 20.2418 21.9201Z" fill="#337AB7"/>
<path d="M23.634 12.4548H33.1651C33.1651 12.4548 33.1651 12.4548 33.1651 12.3681L23.634 3.35693V12.4548Z" fill="#2B2B6B"/>
<path d="M21.901 15.8337C20.9478 15.8337 20.168 15.0539 20.168 14.1008V2.49023H2.31898C1.36587 2.49023 0.58606 3.27005 0.58606 4.22315V41.5675C0.58606 42.5206 1.36587 43.3004 2.31898 43.3004H32.0385C32.9916 43.3004 33.7714 42.5206 33.7714 41.5675V15.8337H21.901ZM24.7603 35.329H9.51059C8.29754 35.329 7.34444 34.5492 7.34444 33.5961C7.34444 32.643 8.29754 31.8632 9.51059 31.8632H24.8469C26.06 31.8632 27.0131 32.643 27.0131 33.5961C27.0131 34.5492 25.9733 35.329 24.7603 35.329ZM24.7603 27.271H9.51059C8.29754 27.271 7.34444 26.4911 7.34444 25.538C7.34444 24.5849 8.29754 23.8051 9.51059 23.8051H24.8469C26.06 23.8051 27.0131 24.5849 27.0131 25.538C27.0131 26.4911 25.9733 27.271 24.7603 27.271Z" fill="#2B2B6B"/>
</svg>
