<svg width="22" height="21" viewBox="0 0 22 21" fill="none" xmlns="http://www.w3.org/2000/svg">
<path d="M11.123 0C5.3334 0 0.623047 4.71036 0.623047 10.5C0.623047 16.2896 5.3334 21 11.123 21C16.9127 21 21.623 16.2896 21.623 10.5C21.623 4.71036 16.9127 0 11.123 0ZM16.9431 8.36072L10.2372 15.0666C10.0331 15.2707 9.75021 15.3879 9.46166 15.3879V15.8419L9.4519 15.3879C9.15949 15.3854 8.87548 15.2633 8.67252 15.0528L5.28936 11.5461C4.86936 11.1109 4.88185 10.4155 5.31706 9.99555C5.52252 9.79712 5.79291 9.68815 6.07828 9.68815C6.37864 9.68815 6.65901 9.80711 6.86765 10.0232L9.47574 12.7265L15.3925 6.8099C15.5996 6.60285 15.8749 6.48866 16.168 6.48866C16.4609 6.48866 16.7363 6.60263 16.9433 6.80968C17.3706 7.23739 17.3706 7.93323 16.9431 8.36072Z" fill="#2B2B6B"/>
</svg>
