<svg width="60" height="42" viewBox="0 0 60 42" fill="none" xmlns="http://www.w3.org/2000/svg">
<path opacity="0.5" d="M59.0205 42C59.0205 36.4845 57.9341 31.023 55.8234 25.9273C53.7127 20.8316 50.619 16.2016 46.719 12.3015C42.8189 8.40145 38.1889 5.30776 33.0932 3.19706C27.9975 1.08636 22.536 -2.41091e-07 17.0205 0V42H59.0205Z" fill="#BAC927"/>
<path d="M40.6326 15.4326V27.9349C40.6326 29.6586 39.2307 31.0605 37.507 31.0605H37.4585C36.9662 35.4191 32.2732 38.8494 26.5674 38.8494V38.8744C26.5674 40.5982 25.1656 42 23.4419 42H20.3163C18.5925 42 17.1907 40.5982 17.1907 38.8744V35.7488C17.1907 34.0251 18.5925 32.6233 20.3163 32.6233H23.4419C25.1578 32.6233 26.5518 34.186 26.5659 35.7488C30.5057 35.7488 33.7422 33.6969 34.2736 31.062C32.5998 31.0026 31.2558 29.6211 31.2558 27.9349V15.4326C31.2558 13.7823 32.5451 12.4414 34.1673 12.3289C33.039 7.99836 27.266 3.12558 20.3163 3.12558C13.3665 3.12558 7.5936 7.99836 6.46526 12.3289C8.08744 12.4414 9.37674 13.7823 9.37674 15.4326V27.9349C9.37674 29.6586 7.97492 31.0605 6.25116 31.0605H3.12558C1.40182 31.0605 0 29.6586 0 27.9349V15.4326C0 13.7088 1.40182 12.307 3.12558 12.307H3.2803C4.35862 6.25741 11.5787 0 20.3163 0C29.0538 0 36.2739 6.25741 37.3523 12.307H37.507C39.2307 12.307 40.6326 13.7088 40.6326 15.4326Z" fill="#2B2B6B"/>
</svg>
