<svg width="42" height="34" viewBox="0 0 42 34" fill="none" xmlns="http://www.w3.org/2000/svg">
<path opacity="0.5" d="M8.11938 17.3795C8.11938 8.29561 15.4834 0.931641 24.5673 0.931641H41.0152V17.3795C41.0152 26.4634 33.6512 33.8274 24.5673 33.8274C15.4834 33.8274 8.11938 26.4634 8.11938 17.3795Z" fill="#F3B01A"/>
<path d="M28.1982 29.4372L22.5336 23.7724L26.5748 21.4381C26.8906 21.2557 27.0743 20.9091 27.0481 20.5454C27.0218 20.1816 26.7901 19.8648 26.4514 19.7298L8.43055 12.5412C8.07729 12.4001 7.6739 12.4832 7.40487 12.7522C7.13585 13.0213 7.05276 13.4246 7.19374 13.7778L14.3811 31.8008C14.5163 32.1395 14.833 32.3713 15.1968 32.3976C15.5606 32.424 15.9074 32.2402 16.0897 31.9243L18.4238 27.8831L24.088 33.5479C24.2664 33.7264 24.5087 33.8267 24.7611 33.8267C25.0136 33.8267 25.2557 33.7264 25.4341 33.5479L28.1983 30.7834C28.5699 30.4116 28.5699 29.809 28.1982 29.4372Z" fill="#2B2B6B"/>
<path d="M4.19337 8.19515C3.82161 7.82367 3.21906 7.82358 2.84711 8.19515C2.47544 8.56691 2.47544 9.16964 2.84711 9.54141L4.9622 11.6565C5.14803 11.8423 5.39156 11.9353 5.63528 11.9353C5.87881 11.9353 6.12243 11.8423 6.30826 11.6565C6.68003 11.2847 6.68003 10.6821 6.30826 10.3103L4.19337 8.19515Z" fill="#2B2B6B"/>
<path d="M4.91025 14.7754C4.91025 14.2498 4.48405 13.8235 3.95827 13.8235H0.967113C0.441432 13.8235 0.0151367 14.2497 0.0151367 14.7754C0.0151367 15.301 0.441336 15.7273 0.967113 15.7273H3.95827C4.48405 15.7272 4.91025 15.301 4.91025 14.7754Z" fill="#2B2B6B"/>
<path d="M4.52425 17.7122L2.40888 19.8275C2.03721 20.1993 2.03721 20.802 2.40888 21.1737C2.59481 21.3595 2.83843 21.4525 3.08196 21.4525C3.32549 21.4525 3.56921 21.3595 3.75504 21.1737L5.87032 19.0585C6.24208 18.6867 6.24208 18.084 5.87032 17.7122C5.49865 17.3408 4.8962 17.3407 4.52425 17.7122Z" fill="#2B2B6B"/>
<path d="M9.42747 10.2578C9.95315 10.2578 10.3794 9.83165 10.3794 9.30587V6.31443C10.3794 5.78875 9.95324 5.36255 9.42747 5.36255C8.90188 5.36255 8.47559 5.78865 8.47559 6.31443V9.30597C8.47559 9.83165 8.90179 10.2578 9.42747 10.2578Z" fill="#2B2B6B"/>
<path d="M13.0381 11.4976C13.2818 11.4976 13.5253 11.4046 13.7112 11.2188L15.8262 9.1037C16.1979 8.73194 16.1979 8.1292 15.8262 7.75744C15.4544 7.38587 14.8517 7.38587 14.48 7.75744L12.365 9.87262C11.9932 10.2444 11.9932 10.8471 12.365 11.2188C12.5509 11.4046 12.7945 11.4976 13.0381 11.4976Z" fill="#2B2B6B"/>
</svg>
