<svg width="19" height="19" viewBox="0 0 19 19" fill="none" xmlns="http://www.w3.org/2000/svg">
<path d="M17.4346 0.0644531H11.5879C11.1191 0.0644531 10.7391 0.444383 10.7391 0.913181C10.7391 1.38198 11.1191 1.76191 11.5879 1.76191H15.4799L7.15079 10.091C6.81916 10.4224 6.81916 10.9599 7.15079 11.2913C7.3165 11.4571 7.53377 11.54 7.75085 11.54C7.96792 11.54 8.1852 11.4571 8.35091 11.2913L16.5858 3.0562V6.7597C16.5858 7.2285 16.9658 7.60843 17.4346 7.60843C17.9034 7.60843 18.2833 7.2285 18.2833 6.7597V0.913181C18.2833 0.444383 17.9034 0.0644531 17.4346 0.0644531Z" fill="white"/>
<path d="M14.4989 8.61207C14.0301 8.61207 13.6502 8.992 13.6502 9.4608V16.1569C13.6502 16.4636 13.3911 16.7227 13.0843 16.7227H2.26327C1.95652 16.7227 1.69746 16.4636 1.69746 16.1569V5.33578C1.69746 5.02903 1.95652 4.76997 2.26327 4.76997H8.98298C9.45178 4.76997 9.83171 4.39004 9.83171 3.92124C9.83171 3.45244 9.45178 3.07251 8.98298 3.07251H2.26327C1.01525 3.07251 0 4.08776 0 5.33578V16.1569C0 17.4049 1.01525 18.4201 2.26327 18.4201H13.0843C14.3324 18.4201 15.3476 17.4049 15.3476 16.1569V9.4608C15.3476 8.9922 14.9677 8.61207 14.4989 8.61207Z" fill="white"/>
</svg>
