<svg width="60" height="43" viewBox="0 0 60 43" fill="none" xmlns="http://www.w3.org/2000/svg">
<path opacity="0.5" d="M59.7451 42.9951C59.7451 37.4796 58.6588 32.0181 56.5481 26.9224C54.4374 21.8267 51.3437 17.1967 47.4436 13.2966C43.5435 9.39657 38.9135 6.30287 33.8178 4.19218C28.7221 2.08148 23.2606 0.995117 17.7451 0.995117V42.9951H59.7451Z" fill="#BAC927"/>
<path d="M41.3572 16.4277V28.93C41.3572 30.6538 39.9553 32.0556 38.2316 32.0556H38.1831C37.6909 36.4142 32.9978 39.8445 27.292 39.8445V39.8695C27.292 41.5933 25.8902 42.9951 24.1665 42.9951H21.0409C19.3171 42.9951 17.9153 41.5933 17.9153 39.8695V36.744C17.9153 35.0202 19.3171 33.6184 21.0409 33.6184H24.1665C25.8824 33.6184 27.2764 35.1812 27.2905 36.744C31.2303 36.744 34.4668 34.692 34.9982 32.0571C33.3244 31.9978 31.9804 30.6163 31.9804 28.93V16.4277C31.9804 14.7774 33.2697 13.4365 34.8919 13.324C33.7636 8.99348 27.9906 4.1207 21.0409 4.1207C14.0912 4.1207 8.31821 8.99348 7.18987 13.324C8.81205 13.4365 10.1014 14.7774 10.1014 16.4277V28.93C10.1014 30.6538 8.69953 32.0556 6.97577 32.0556H3.85019C2.12643 32.0556 0.724609 30.6538 0.724609 28.93V16.4277C0.724609 14.7039 2.12643 13.3021 3.85019 13.3021H4.00491C5.08323 7.25253 12.3033 0.995117 21.0409 0.995117C29.7785 0.995117 36.9985 7.25253 38.0769 13.3021H38.2316C39.9553 13.3021 41.3572 14.7039 41.3572 16.4277Z" fill="#2B2B6B"/>
</svg>
