<svg width="48" height="43" viewBox="0 0 48 43" fill="none" xmlns="http://www.w3.org/2000/svg">
<path opacity="0.5" d="M4.60205 21.467C4.60205 9.65911 14.1742 0.0869141 25.9821 0.0869141H47.3622V21.467C47.3622 33.2749 37.79 42.8471 25.9821 42.8471C14.1742 42.8471 4.60205 33.2749 4.60205 21.467Z" fill="#337AB7"/>
<path d="M23.0708 13.8407C20.9467 10.175 17.1738 7.93552 12.9783 7.84994C12.7992 7.84625 12.6189 7.84625 12.4397 7.84994C8.24424 7.93552 4.47135 10.175 2.34716 13.8407C0.175927 17.5877 0.116523 22.0884 2.18822 25.8804L10.8673 41.7662C10.8712 41.7732 10.8751 41.7803 10.8791 41.7873C11.261 42.451 11.9451 42.8472 12.7091 42.8472C13.4731 42.8472 14.1572 42.4509 14.539 41.7873C14.543 41.7803 14.5469 41.7732 14.5508 41.7662L23.2299 25.8804C25.3015 22.0884 25.2421 17.5877 23.0708 13.8407ZM12.709 23.7066C9.99506 23.7066 7.78712 21.4986 7.78712 18.7847C7.78712 16.0708 9.99506 13.8628 12.709 13.8628C15.4229 13.8628 17.6309 16.0708 17.6309 18.7847C17.6309 21.4986 15.423 23.7066 12.709 23.7066Z" fill="#2B2B6B"/>
</svg>
