<svg width="42" height="33" viewBox="0 0 42 33" fill="none" xmlns="http://www.w3.org/2000/svg">
<circle opacity="0.8" cx="26.291" cy="17.5029" r="15" fill="white"/>
<path d="M4.60425 4.13336V13.6594C4.60425 15.4058 6.03316 16.8348 7.7796 16.8348H23.6563C25.4028 16.8348 26.8317 15.4058 26.8317 13.6594V4.13336C26.8317 2.38692 25.4028 0.958008 23.6563 0.958008H7.7796C6.03316 0.958008 4.60425 2.38692 4.60425 4.13336ZM25.4452 5.72103H5.92168V4.13336H25.4452V5.72103Z" fill="#2B2B6B"/>
<path d="M31.2772 20.1692C30.9597 19.8517 30.4834 19.5342 29.5308 19.3754C28.5781 19.2166 23.4976 18.5816 22.8625 18.4228C21.9099 18.264 20.7985 18.7403 19.3696 19.6929C18.417 20.328 16.5118 21.4394 16.3531 21.4394C16.5118 21.5981 17.3057 21.5981 17.3057 21.5981H17.4644C19.2109 21.5981 20.481 23.027 20.481 24.6147V24.9323C20.481 26.6787 19.0521 27.9488 17.4644 27.9488H14.1303C11.2725 27.9488 8.57345 25.091 8.57345 25.091C8.57345 25.091 11.9076 26.3612 14.1303 26.3612H17.3057C18.2583 26.3612 18.8933 25.5673 18.8933 24.7735C18.8933 23.9796 18.2583 23.1858 17.4644 23.1858C14.4478 22.8683 13.1777 21.5981 13.1777 21.5981C13.1777 21.5981 10.4787 19.5342 9.52605 19.0579C6.19193 17.1526 0 21.1218 0 21.1218L4.12795 30.1716C4.12795 30.1716 6.19193 28.9014 9.04975 30.0128C10.955 30.8067 12.0663 31.4417 13.9715 32.0768C16.6706 33.0294 17.6232 32.8706 19.3696 31.6005C20.9573 30.4891 28.5781 24.456 29.6895 23.6621C31.2772 22.2332 32.071 21.1218 31.2772 20.1692Z" fill="#2B2B6B"/>
</svg>
