<svg width="60" height="43" viewBox="0 0 60 43" fill="none" xmlns="http://www.w3.org/2000/svg">
<path opacity="0.5" d="M59.3328 42.335C59.3328 36.8194 58.2465 31.3579 56.1358 26.2623C54.0251 21.1666 50.9314 16.5365 47.0313 12.6365C43.1312 8.73641 38.5012 5.64272 33.4055 3.53202C28.3099 1.42132 22.8483 0.334961 17.3328 0.334961V42.335H59.3328Z" fill="#BAC927"/>
<path d="M12.5227 18.254C12.8821 17.1757 12.5227 16.0975 11.4444 15.5584C10.3662 15.0192 9.10821 15.5584 8.74879 16.4569C8.20966 17.3555 8.56908 18.4337 9.46763 18.9728H11.8039C12.1633 18.7931 12.343 18.6134 12.5227 18.254Z" fill="#2B2B6B"/>
<path d="M4.43588 18.9725H5.15472L4.97501 18.2537L7.49094 12.503L8.92862 11.9639C9.10833 11.9639 9.10833 12.1436 9.28804 12.1436C10.3663 12.6827 11.6243 12.1436 11.9837 11.245C11.9837 11.0653 11.9837 11.0653 11.9837 10.8856L13.4214 10.5262L30.314 17.8943L30.6735 18.9725H33.1894C34.6271 18.9725 35.885 19.5117 36.7836 20.4102C36.7836 19.1522 36.0647 17.8943 34.8068 17.3551L10.7257 6.75228C9.10833 6.03344 7.13152 6.75228 6.41269 8.36966L1.20111 20.0508C2.09966 19.3319 3.17791 18.9725 4.43588 18.9725Z" fill="#2B2B6B"/>
<path d="M20.7893 16.8163C18.2734 15.7381 15.5778 16.8163 14.4995 18.9728H23.1256C22.5864 18.0743 21.8676 17.3554 20.7893 16.8163Z" fill="#2B2B6B"/>
<path d="M0.841858 24.364V38.7407C0.841858 40.7175 2.45924 42.3349 4.43605 42.3349H33.1896C35.1664 42.3349 36.7838 40.7175 36.7838 38.7407V24.364C36.7838 22.3872 35.1664 20.7698 33.1896 20.7698H4.43605C2.45924 20.7698 0.841858 22.3872 0.841858 24.364ZM33.9084 34.9668L32.6504 36.0451C32.4707 36.0451 32.291 36.0451 32.291 36.0451C31.033 36.0451 29.9548 36.9436 29.9548 38.2016C29.9548 38.3813 29.9548 38.561 29.9548 38.561L28.6968 39.6393H8.74907L7.49111 38.561C7.49111 38.3813 7.49111 38.3813 7.49111 38.2016C7.49111 36.9436 6.41285 36.0451 5.15489 36.0451C4.97518 36.0451 4.79547 36.0451 4.79547 36.0451L3.5375 34.9668V27.9582L4.79547 26.8799C4.97518 26.8799 5.15489 26.8799 5.15489 26.8799C6.41285 26.8799 7.49111 25.9813 7.49111 24.7234C7.49111 24.5437 7.49111 24.364 7.49111 24.364L8.74907 23.2857H28.8765L30.1345 24.364C30.1345 24.5437 30.1345 24.5437 30.1345 24.7234C30.1345 25.9813 31.2128 26.8799 32.4707 26.8799C32.6504 26.8799 32.8301 26.8799 32.8301 26.8799L34.0881 27.9582V34.9668H33.9084ZM31.033 31.5523C31.033 32.8103 29.9548 33.7089 28.6968 33.7089C27.4389 33.7089 26.3606 32.8103 26.3606 31.5523C26.3606 30.2944 27.4389 29.3958 28.6968 29.3958C29.9548 29.3958 31.033 30.2944 31.033 31.5523ZM24.3838 31.5523C24.3838 34.248 22.0476 36.5842 18.9925 36.5842C15.9375 36.5842 13.6012 34.4277 13.6012 31.5523C13.6012 28.677 15.9375 26.5205 18.9925 26.5205C22.0476 26.5205 24.3838 28.8567 24.3838 31.5523ZM11.265 31.5523C11.265 32.8103 10.1868 33.7089 8.92878 33.7089C7.67082 33.7089 6.59256 32.8103 6.59256 31.5523C6.59256 30.2944 7.67082 29.3958 8.92878 29.3958C10.1868 29.3958 11.265 30.2944 11.265 31.5523Z" fill="#2B2B6B"/>
</svg>
