<svg width="18" height="20" viewBox="0 0 18 20" fill="none" xmlns="http://www.w3.org/2000/svg">
<path d="M7.67218 0.200195L8.71428 2.28441H14.9669L16.009 0.200195H7.67218ZM8.71428 3.32651V5.41072C8.71428 6.23987 9.04366 7.03506 9.62996 7.62136C10.2163 8.20766 11.0114 8.53704 11.8406 8.53704C12.6698 8.53704 13.4649 8.20766 14.0512 7.62136C14.6375 7.03506 14.9669 6.23987 14.9669 5.41072V3.32651H8.71428ZM1.9406 5.41072C0.377441 5.41072 0.377441 6.97388 0.377441 6.97388V13.2265C0.37759 13.4719 0.435491 13.7137 0.546461 13.9326C0.65743 14.1514 0.818351 14.341 1.0162 14.4861C1.21406 14.6312 1.44329 14.7277 1.68535 14.7677C1.9274 14.8078 2.1755 14.7903 2.40955 14.7167L6.63007 13.3849V20.0002L14.9669 9.57914H8.71428C8.71428 9.57914 8.30786 9.57914 7.83058 9.72921L3.50376 11.0944V6.97388C3.50376 6.97388 3.50376 5.41072 1.9406 5.41072ZM16.5738 10.3899L8.71428 20.0002H17.0511V11.6634C17.0422 11.1968 16.8737 10.7474 16.5738 10.3899Z" fill="#2B2B6B"/>
</svg>
