<svg width="55" height="43" viewBox="0 0 55 43" fill="none" xmlns="http://www.w3.org/2000/svg">
<path opacity="0.5" d="M54.6712 42.7949C54.6712 37.2794 53.5848 31.8179 51.4741 26.7222C49.3634 21.6265 46.2697 16.9965 42.3697 13.0964C38.4696 9.19638 33.8396 6.10268 28.7439 3.99198C23.6482 1.88128 18.1867 0.794922 12.6712 0.794922V42.7949H54.6712Z" fill="#337AB7"/>
<path d="M13.9976 4.99512L15.9871 8.97406H27.9239L29.9134 4.99512H13.9976ZM15.9871 10.9635V14.9425C15.9871 16.5254 16.6159 18.0435 17.7352 19.1628C18.8545 20.2821 20.3726 20.9109 21.9555 20.9109C23.5384 20.9109 25.0565 20.2821 26.1758 19.1628C27.2951 18.0435 27.9239 16.5254 27.9239 14.9425V10.9635H15.9871ZM3.0555 14.9425C0.0712891 14.9425 0.0712891 17.9267 0.0712891 17.9267V29.8635C0.0715728 30.3319 0.182112 30.7937 0.393962 31.2114C0.605813 31.6292 0.913025 31.9912 1.29075 32.2682C1.66847 32.5452 2.10608 32.7294 2.5682 32.8059C3.03031 32.8824 3.50394 32.849 3.95076 32.7085L12.0081 30.1659V42.7951L27.9239 22.9004H15.9871C15.9871 22.9004 15.2112 22.9004 14.3 23.1869L6.03971 25.7931V17.9267C6.03971 17.9267 6.03971 14.9425 3.0555 14.9425ZM30.9917 24.4482L15.9871 42.7951H31.9029V26.8793C31.8858 25.9887 31.5642 25.1307 30.9917 24.4482Z" fill="#2B2B6B"/>
</svg>
