<svg width="55" height="45" viewBox="0 0 55 45" fill="none" xmlns="http://www.w3.org/2000/svg">
<circle opacity="0.5" cx="32.3357" cy="22.1309" r="22" fill="#F3B01A"/>
<path d="M37.7586 11.2047C37.7003 10.7982 37.4177 10.4595 37.0282 10.3293C36.6408 10.1981 36.2099 10.3007 35.9188 10.5908L34.386 12.1247C33.5666 12.944 32.1386 12.944 31.3193 12.1247C30.4715 11.2768 30.4719 9.90627 31.3193 9.05904L32.8521 7.52623C33.1422 7.23616 33.2438 6.8064 33.1135 6.41682C32.9833 6.02724 32.6446 5.74461 32.2381 5.68644C30.2152 5.40063 28.168 6.08021 26.7208 7.52515C25.0843 9.16274 24.4386 11.57 25.0366 13.8088L9.00976 29.8351L9.00868 29.834C6.7783 29.2423 4.35735 29.888 2.72612 31.5192C1.28856 32.9568 0.600523 35.0199 0.88633 37.0375C0.944576 37.444 1.2272 37.7828 1.61671 37.9129C2.00311 38.0431 2.43497 37.9415 2.72612 37.6515L4.25893 36.1176C5.07827 35.2982 6.50629 35.2982 7.32563 36.1176C8.17344 36.9652 8.17301 38.3358 7.32563 39.1832L5.79282 40.716C5.50275 41.0061 5.40115 41.4358 5.53137 41.8254C5.66159 42.215 6.00029 42.4976 6.40678 42.5558C8.42442 42.8429 10.4546 42.1852 11.9241 40.7171C13.5606 39.0795 14.2063 36.6723 13.6083 34.4334L29.6351 18.4071L29.6362 18.4082C31.8782 19.0021 34.2876 18.3542 35.9188 16.723C37.3563 15.2854 38.0444 13.2224 37.7586 11.2047Z" fill="#2B2B6B"/>
<path d="M31.3183 29.6135C30.8049 29.6135 30.2767 29.6908 29.6564 29.8549L25.455 25.6541L20.8552 30.2534L25.0558 34.4544C24.8917 35.0757 24.8145 35.604 24.8145 36.1173C24.8145 39.7038 27.7319 42.6212 31.3183 42.6212C34.9047 42.6212 37.8221 39.7038 37.8221 36.1173C37.8221 32.5309 34.9047 29.6135 31.3183 29.6135ZM34.8751 35.9003L34.2304 38.3054C34.1298 38.6791 33.8377 38.9712 33.4641 39.0717L31.059 39.7164C30.7057 39.8138 30.2975 39.7213 30.0121 39.4359L28.2518 37.6755C27.9776 37.4013 27.8707 37.0023 27.9712 36.6286L28.6159 34.2236C28.7165 33.8499 29.0087 33.5577 29.3823 33.4572L31.7873 32.8125C32.1589 32.7088 32.559 32.8189 32.8342 33.0931L34.5946 34.8534C34.8688 35.1276 34.9756 35.5267 34.8751 35.9003Z" fill="#2B2B6B"/>
<path d="M13.6065 13.7469C14.2045 11.508 13.5588 9.0998 11.9222 7.46322C9.46532 5.00738 5.17915 5.00738 2.72439 7.46322C0.189121 9.99957 0.189121 14.1258 2.72439 16.6611C4.35352 18.2902 6.76601 18.9455 9.00803 18.3453L13.1907 22.5878L17.7898 17.9892L13.6065 13.7469ZM10.7716 11.7367L10.1269 14.1417C10.0263 14.5154 9.73414 14.8076 9.36053 14.9081L6.95549 15.5528C6.60219 15.6502 6.19396 15.5577 5.90859 15.2722L4.14822 13.5119C3.87405 13.2377 3.76717 12.8386 3.86769 12.465L4.51236 10.0599C4.61295 9.68623 4.90512 9.39407 5.27873 9.29355L7.68378 8.64887C8.05746 8.54727 8.4565 8.65523 8.73068 8.9294L10.491 10.6898C10.7652 10.9639 10.8721 11.363 10.7716 11.7367Z" fill="#2B2B6B"/>
</svg>
