<svg width="42" height="30" viewBox="0 0 42 30" fill="none" xmlns="http://www.w3.org/2000/svg">
<path opacity="0.8" d="M12.7156 14.8233C12.7156 6.78438 19.2324 0.267578 27.2713 0.267578H41.827V14.8233C41.827 22.8622 35.3102 29.379 27.2713 29.379C19.2324 29.379 12.7156 22.8622 12.7156 14.8233Z" fill="white"/>
<path d="M34.0633 15.7904C33.7808 14.2285 32.899 14.2555 31.6107 14.2555C31.4303 14.2555 31.2102 14.2788 30.9646 14.3224L29.3079 9.35211C28.7979 7.82234 27.2337 6.3743 25.671 5.98372L25.5375 5.95006C24.4753 5.6845 22.8985 5.46923 21.6358 5.40229V2.60461C21.6358 2.29947 21.3861 2.0498 21.081 2.0498H13.3137C13.0086 2.0498 12.7589 2.29947 12.7589 2.60461V5.45518C11.6608 5.55246 10.4591 5.73443 9.59694 5.94932L9.46526 5.98224C7.90109 6.37282 6.33655 7.82086 5.8265 9.351L4.16986 14.3217C3.92501 14.2788 3.70605 14.2555 3.52592 14.2555C2.23656 14.2555 1.35369 14.2285 1.07074 15.7904C0.719362 17.7304 0.937954 18.6898 2.34012 18.6898C2.63565 18.6898 2.92045 18.6905 3.20007 18.6916C3.16271 19.0907 3.142 19.4691 3.142 19.8031V24.2415V26.8306C3.142 28.0563 4.13546 29.0498 5.36121 29.0498H7.58042C8.80616 29.0498 9.79962 28.0563 9.79962 26.8306V25.721H25.3341V26.8306C25.3341 28.0563 26.3275 29.0498 27.5533 29.0498H29.7725C30.9982 29.0498 31.9917 28.0563 31.9917 26.8306V25.721V24.2415V20.9127V19.8031V18.6935H31.9336C31.9336 18.6928 31.9336 18.692 31.9336 18.6913C32.2136 18.6902 32.4992 18.6894 32.7954 18.6894C34.1958 18.6902 34.4143 17.7304 34.0633 15.7904ZM8.69594 22.0219C8.35714 22.0212 6.87841 22.0194 6.47673 22.0194C5.25099 22.0194 5.36713 21.0259 5.36713 19.8001C5.36713 18.5744 6.36059 18.6905 7.58633 18.6905C8.81208 18.6905 12.0248 19.684 12.0248 20.9097C12.0248 21.9875 11.1667 22.0279 8.69594 22.0219ZM6.39647 14.6579L7.93105 10.0526C8.19773 9.25299 9.1849 8.33941 10.0027 8.13524L10.1344 8.10233C11.2306 7.82899 13.1096 7.59783 14.238 7.59783H20.8957C22.0245 7.59783 23.9034 7.82899 24.9975 8.1027L25.131 8.13635C25.9484 8.34052 26.936 9.25484 27.2027 10.0541L28.7358 14.6538C23.8579 16.4747 21.722 16.4747 17.5669 16.4747C13.4158 16.4747 11.2048 16.4739 6.39647 14.6579ZM28.6629 22.0197C25.3341 22.0197 23.1149 22.1355 23.1149 20.912C23.1149 19.6884 26.3275 18.6968 27.5533 18.6968C28.779 18.6968 29.7725 18.5811 29.7725 19.8046C29.7725 21.0281 29.8886 22.0197 28.6629 22.0197Z" fill="#2B2B6B"/>
</svg>
