<svg width="24" height="20" viewBox="0 0 24 20" fill="none" xmlns="http://www.w3.org/2000/svg">
<path d="M23.0792 10.9687C21.9334 5.64453 17.5343 2.44531 12.8348 1.94922V1.25C12.8348 0.558594 12.2619 0 11.5528 0C10.8436 0 10.2707 0.558594 10.2707 1.25V1.94922C5.55519 2.44531 1.19621 5.64453 0.0263405 10.9687C-0.0618005 11.3633 0.366885 11.8008 0.775539 11.4141C2.85887 9.26562 5.09044 9.36719 7.1297 12.8594C7.34204 13.2305 7.72666 13.1953 7.91897 12.8594C8.72826 11.4766 9.71784 10 11.5528 10C13.8965 10 15.0864 12.6875 15.1866 12.8594C15.3789 13.1953 15.7635 13.2305 15.9759 12.8594C18.0191 9.36328 20.2667 9.28906 22.33 11.4141C22.7427 11.8047 23.1674 11.3633 23.0792 10.9687ZM10.2707 11.7852V16.875C10.2707 17.2187 9.98227 17.5 9.6297 17.5C9.3172 17.5 9.10086 17.293 9.02474 17.082C8.78836 16.4297 8.05919 16.0898 7.39012 16.3203C6.72105 16.5508 6.37249 17.2656 6.60887 17.9141C7.05759 19.1602 8.27554 19.9961 9.6297 19.9961C11.3965 19.9961 12.8348 18.5937 12.8348 16.8711V11.7812C12.4702 11.4727 12.0416 11.25 11.5528 11.25C11.06 11.2539 10.6553 11.4375 10.2707 11.7852Z" fill="#2B2B6B"/>
</svg>
